<svg id="visual" viewBox="0 0 900 600" width="900" height="600" xmlns="http://www.w3.org/2000/svg" xmlns:xlink="http://www.w3.org/1999/xlink" version="1.1"><rect width="900" height="600" fill="#292524"></rect><g><g transform="translate(159 60)"><path d="M0 -147L127.3 -73.5L127.3 73.5L0 147L-127.3 73.5L-127.3 -73.5Z" fill="none" stroke="#fecaca" stroke-width="2"></path></g><g transform="translate(35 342)"><path d="M0 -43L37.2 -21.5L37.2 21.5L0 43L-37.2 21.5L-37.2 -21.5Z" fill="none" stroke="#fecaca" stroke-width="2"></path></g><g transform="translate(607 153)"><path d="M0 -100L86.6 -50L86.6 50L0 100L-86.6 50L-86.6 -50Z" fill="none" stroke="#fecaca" stroke-width="2"></path></g><g transform="translate(728 467)"><path d="M0 -96L83.1 -48L83.1 48L0 96L-83.1 48L-83.1 -48Z" fill="none" stroke="#fecaca" stroke-width="2"></path></g><g transform="translate(322 557)"><path d="M0 -70L60.6 -35L60.6 35L0 70L-60.6 35L-60.6 -35Z" fill="none" stroke="#fecaca" stroke-width="2"></path></g></g></svg>